Coordinates
version=1
nRows=9
nColumns=63
inDegrees=yes

Units are S.I. units (second, meters, Newtons, ...)
If the header above contains a line with 'inDegrees', this indicates whether rotational values are in degrees (yes) or radians (no).

endheader
time	pelvis_tilt	pelvis_list	pelvis_rotation	pelvis_tx	pelvis_ty	pelvis_tz	hip_flexion_r	hip_adduction_r	hip_rotation_r	knee_angle_r	knee_angle_r_beta	ankle_angle_r	subtalar_angle_r	mtp_angle_r	hip_flexion_l	hip_adduction_l	hip_rotation_l	knee_angle_l	knee_angle_l_beta	ankle_angle_l	subtalar_angle_l	mtp_angle_l	L5_S1_Flex_Ext	L5_S1_Lat_Bending	L5_S1_axial_rotation	L4_L5_Flex_Ext	L4_L5_Lat_Bending	L4_L5_axial_rotation	L3_L4_Flex_Ext	L3_L4_Lat_Bending	L3_L4_axial_rotation	L2_L3_Flex_Ext	L2_L3_Lat_Bending	L2_L3_axial_rotation	L1_L2_Flex_Ext	L1_L2_Lat_Bending	L1_L2_axial_rotation	L1_T12_Flex_Ext	L1_T12_Lat_Bending	L1_T12_axial_rotation	Abs_r3	Abs_r2	Abs_r1	Abs_t1	Abs_t2	neck_flexion	neck_bending	neck_rotation	arm_flex_r	arm_add_r	arm_rot_r	elbow_flex_r	pro_sup_r	wrist_flex_r	wrist_dev_r	arm_flex_l	arm_add_l	arm_rot_l	elbow_flex_l	pro_sup_l	wrist_flex_l	wrist_dev_l
      2.59322034	      0.23267015	     -7.12477927	     99.84082952	      0.16229572	      0.93154364	      0.50922606	     -2.72724119	     -0.84497186	      2.92568409	      1.58510875	      0.02766537	     16.88715039	     -9.76768123	      0.00000000	      2.48179187	     -0.93740777	     -4.34217394	      7.88001851	      0.13753227	     22.01020907	     -3.20932112	      0.00000000	     -0.21923910	      0.05517034	      0.04267076	     -0.40714893	      0.07337656	      0.04533769	     -0.36018792	      0.13414117	      0.04533769	     -0.25056837	      0.13414117	      0.03733692	     -0.20358543	      0.11250337	      0.03466999	     -0.12527322	      0.08545886	      0.03200307	     -1.56600297	      0.62409796	      0.23732198	      0.00000000	      0.00000000	     23.44749747	      0.68291084	     11.92663510	      9.41779147	    -17.27425414	     55.41545208	     29.64103312	     87.47678362	     -8.47869952	      1.12643107	     12.08765845	    -19.95084396	     55.40889499	     39.83472118	     88.76142852	     -2.56799768	     10.00256350
      2.61016949	      0.41728702	     -7.24103569	    100.71810116	      0.16158809	      0.93169094	      0.51027241	     -2.41708548	     -0.62998856	      0.47969807	      1.88857694	      0.03296189	     17.65539825	     -7.90389624	      0.00000000	      2.96770520	     -1.11955359	     -3.45356991	      8.28897995	      0.14466999	     21.67722875	     -3.45807120	      0.00000000	     -0.20983368	      0.07009822	     -0.14166642	     -0.38968214	      0.09323064	     -0.15052057	     -0.34473576	      0.17043682	     -0.15052057	     -0.23981892	      0.17043682	     -0.12395812	     -0.19485156	      0.14294429	     -0.11510396	     -0.11989897	      0.10858215	     -0.10624981	     -1.49882102	      0.79296511	     -0.78790611	      0.00000000	      0.00000000	     23.99717971	      0.57926296	     11.91501565	      9.99602349	    -17.60195056	     57.34342967	     30.04516292	     87.72723571	    -11.52693725	      0.87742375	     11.52184510	    -20.11671570	     51.53822474	     41.34986354	     88.84729305	      0.48325472	     11.57145243
      2.62711864	      0.58895175	     -7.34645411	    101.43683718	      0.16093503	      0.93181197	      0.51162842	     -2.12789896	     -0.44555286	     -0.41640168	      2.11722821	      0.03695260	     17.97655311	     -7.86265058	      0.00000000	      3.41122441	     -1.28555824	     -2.99384591	      8.63669430	      0.15073875	     21.46255086	     -3.40896268	      0.00000000	     -0.20002902	      0.08736266	     -0.23300347	     -0.37147390	      0.11619234	     -0.24756619	     -0.32862768	      0.21241358	     -0.24756619	     -0.22861317	      0.21241358	     -0.20387804	     -0.18574695	      0.17814994	     -0.18931532	     -0.11429658	      0.13532476	     -0.17475260	     -1.42878732	      0.98826391	     -1.29589541	      0.00000000	      0.00000000	     24.53305930	      0.54593162	     11.81943917	     10.23240865	    -17.89424616	     57.35051105	     30.42933706	     87.63150173	    -12.11752113	      1.17498015	     11.89113027	    -20.18137101	     50.99749934	     42.16805243	     88.86446759	      0.63045784	     10.97456274
      2.64406780	      0.85882560	     -7.51110159	    102.55131222	      0.15962530	      0.93183372	      0.51387385	     -1.69631590	     -0.25715541	     -3.94996802	      2.47262117	      0.04315538	     18.99217436	     -4.41564179	      0.00000000	      4.15127099	     -1.48721995	     -2.12911655	      9.21215435	      0.16078242	     21.34894805	     -3.51474651	      0.00000000	     -0.18412736	      0.11875115	     -0.43726865	     -0.34194292	      0.15793903	     -0.46459794	     -0.30250284	      0.28873154	     -0.46459794	     -0.21043916	      0.28873154	     -0.38261007	     -0.17098067	      0.24215734	     -0.35528078	     -0.10521037	      0.18394553	     -0.32795149	     -1.31520333	      1.34333672	     -2.43195704	      0.00000000	      0.00000000	     24.90617488	      0.56269706	     12.07191998	     10.90250472	    -18.17246052	     58.41248859	     30.69155455	     87.42727930	    -12.55484791	      1.87445324	     12.10430867	    -20.10576547	     50.02136932	     42.80802399	     88.93700271	      0.94023781	     10.34622516
      2.66101695	      1.02539742	     -7.71230290	    103.32547737	      0.15885085	      0.93165664	      0.51631397	     -1.19459656	     -0.15060552	     -4.71893086	      2.84675082	      0.04968517	     19.20213665	     -4.56735364	      0.00000000	      4.86292702	     -1.58701500	     -1.69429116	      9.70905533	      0.16945498	     21.45156536	     -3.36761956	      0.00000000	     -0.17198035	      0.13583434	     -0.55041684	     -0.31938470	      0.18065967	     -0.58481789	     -0.28254651	      0.33026761	     -0.58481789	     -0.19655634	      0.33026761	     -0.48161473	     -0.15970095	      0.27699338	     -0.44721368	     -0.09826957	      0.21040739	     -0.41281263	     -1.22843842	      1.53658519	     -3.06125332	      0.00000000	      0.00000000	     25.45792416	      0.46390238	     11.91894851	     11.32365949	    -18.35660738	     58.58358745	     30.97044738	     87.30778703	    -12.22425853	      2.64676255	     12.64750413	    -20.12998184	     50.08894184	     43.34705526	     88.99634401	      0.89380278	      9.46339050
      2.67796610	      1.19371249	     -7.88912635	    103.67055204	      0.15899550	      0.93148101	      0.51844938	     -0.73996029	     -0.01025297	     -5.14114729	      3.08111579	      0.05377562	     19.16083431	     -4.63165032	      0.00000000	      5.32044471	     -1.72024722	     -1.50619424	      9.78271028	      0.17074050	     21.56838023	     -3.22042489	      0.00000000	     -0.16539747	      0.14935132	     -0.57950605	     -0.30715963	      0.19863725	     -0.61572518	     -0.27173150	      0.36313279	     -0.61572518	     -0.18903276	      0.36313279	     -0.50706779	     -0.15358809	      0.30455720	     -0.47084867	     -0.09450811	      0.23134519	     -0.43462954	     -1.18141755	      1.68949195	     -3.22303880	      0.00000000	      0.00000000	     25.92683088	      0.38757098	     11.83457913	     11.67264397	    -18.35806621	     58.79971445	     31.00151083	     87.36084844	    -11.93619645	      3.00610710	     13.11913863	    -20.27746965	     50.28569389	     44.03829282	     89.11410647	      0.80504601	      8.87424006
      2.69491525	      1.46771794	     -8.07008110	    104.64970741	      0.15799497	      0.93149067	      0.52135184	     -0.23599443	      0.16161357	     -6.82846010	      3.43651959	      0.05997858	     19.41719595	     -3.64219777	      0.00000000	      6.24785894	     -1.95672845	     -1.59582093	     10.49844006	      0.18323235	     22.33483912	     -1.80188701	      0.00000000	     -0.15440001	      0.18383348	     -0.74879006	     -0.28673627	      0.24449853	     -0.79558944	     -0.25366378	      0.44697272	     -0.79558944	     -0.17646378	      0.44697272	     -0.65519130	     -0.14337585	      0.37487323	     -0.60839192	     -0.08822417	      0.28475806	     -0.56159254	     -1.10286386	      2.07956109	     -4.16454566	      0.00000000	      0.00000000	     26.11310542	      0.06231068	     11.79073621	     12.46438257	    -18.39205516	     60.09925667	     30.96100741	     87.45659458	    -11.19321496	      3.99629524	     14.01074760	    -20.41433645	     52.47594285	     44.11111028	     89.16724949	     -1.83378039	      6.30320409
      2.71186441	      1.54179424	     -8.17511736	    104.84496023	      0.15795189	      0.93177791	      0.52318653	      0.22763728	      0.10654041	     -8.34962469	      3.94119896	      0.06878690	     19.80231448	     -1.92009930	      0.00000000	      6.70065754	     -2.13702138	     -3.15096046	     10.79839421	      0.18846753	     23.21545802	      0.82149023	      0.00000000	     -0.15013325	      0.19487465	     -0.74462411	     -0.27881246	      0.25918329	     -0.79116312	     -0.24665392	      0.47381824	     -0.79116312	     -0.17158729	      0.47381824	     -0.65154610	     -0.13941374	      0.39738840	     -0.60500709	     -0.08578614	      0.30186084	     -0.55846808	     -1.07238681	      2.20446107	     -4.14137593	      0.00000000	      0.00000000	     26.14206762	     -0.17950719	     11.58770433	     13.10176538	    -18.18212102	     61.51603718	     30.50288669	     87.72441810	    -11.27128267	      3.99652568	     15.06581122	    -20.49770685	     55.24631464	     44.28390056	     89.23555055	     -5.06215278	      4.21188294
      2.72881356	      1.61891845	     -8.24661684	    105.06189394	      0.15817559	      0.93202933	      0.52433059	      0.55432435	      0.14617526	     -8.75924388	      4.28858777	      0.07484998	     19.87652877	     -1.78351979	      0.00000000	      6.95152276	     -2.21973365	     -3.23848484	     10.81334131	      0.18872841	     23.54972700	      1.52395452	      0.00000000	     -0.14197339	      0.19939455	     -0.77986934	     -0.26365878	      0.26519476	     -0.82861118	     -0.23324808	      0.48480792	     -0.82861118	     -0.16226139	      0.48480792	     -0.68238567	     -0.13183649	      0.40660537	     -0.63364384	     -0.08112359	      0.30886216	     -0.58490201	     -1.01410172	      2.25559106	     -4.33739932	      0.00000000	      0.00000000	     26.08004104	     -0.23365959	     11.31038287	     13.84231031	    -17.68821448	     62.53075356	     30.02121584	     88.21645319	    -10.53553363	      4.40209346	     15.56880972	    -20.56793263	     56.11776369	     45.20260227	     89.31737259	     -6.55789024	      3.76927918
